<?xml version="1.0" standalone="no"?>
<!DOCTYPE svg PUBLIC "-//W3C//DTD SVG 20010904//EN"
 "http://www.w3.org/TR/2001/REC-SVG-20010904/DTD/svg10.dtd">
<svg version="1.0" xmlns="http://www.w3.org/2000/svg"
 width="64.000000pt" height="64.000000pt" viewBox="0 0 64.000000 64.000000"
 preserveAspectRatio="xMidYMid meet">

<g transform="translate(0.000000,64.000000) scale(0.100000,-0.100000)"
fill="#000000" stroke="none">
<path d="M490 514 c0 -107 -1 -116 -17 -109 -10 4 -37 10 -60 12 l-43 6 0 -41
c0 -23 5 -52 11 -66 12 -24 54 -46 90 -46 16 0 19 -8 19 -45 0 -43 -1 -45 -29
-45 -32 0 -71 39 -71 71 0 21 -16 34 -25 19 -10 -16 4 -65 26 -89 11 -11 38
-24 59 -27 40 -6 40 -7 40 -50 0 -42 -1 -44 -29 -44 -32 0 -71 39 -71 71 0 11
-5 19 -10 19 -20 0 -22 -28 -5 -64 16 -34 54 -56 96 -56 9 0 20 -6 22 -12 4
-9 8 -10 14 -2 4 6 25 14 45 18 22 4 45 17 58 33 21 27 28 83 10 83 -5 0 -10
-8 -10 -19 0 -32 -39 -71 -71 -71 -28 0 -29 2 -29 44 0 43 1 44 39 50 26 4 47
15 60 32 22 27 29 84 11 84 -5 0 -10 -8 -10 -19 0 -32 -39 -71 -71 -71 -28 0
-29 2 -29 44 0 43 1 44 39 50 53 8 81 44 81 104 l0 45 -42 -6 c-24 -2 -51 -8
-60 -12 -17 -7 -18 2 -18 109 0 71 -4 116 -10 116 -6 0 -10 -45 -10 -116z
m-21 -150 c31 -39 28 -64 -8 -64 -32 0 -71 39 -71 71 0 30 54 25 79 -7z m141
7 c0 -32 -39 -71 -71 -71 -36 0 -39 25 -8 64 25 32 79 37 79 7z"/>
<path d="M430 520 c0 -33 4 -60 10 -60 6 0 10 27 10 60 0 33 -4 60 -10 60 -6
0 -10 -27 -10 -60z"/>
<path d="M550 520 c0 -33 4 -60 10 -60 6 0 10 27 10 60 0 33 -4 60 -10 60 -6
0 -10 -27 -10 -60z"/>
<path d="M211 349 c-23 -9 -23 -10 25 -62 27 -29 59 -66 70 -82 12 -17 25 -27
29 -23 12 11 -10 53 -53 106 l-37 45 43 -5 c31 -5 42 -3 42 7 0 25 -71 33
-119 14z"/>
<path d="M60 264 c-38 -44 -50 -73 -50 -125 0 -85 96 -132 256 -127 125 4 112
22 -21 29 -158 8 -205 33 -205 109 0 45 45 120 72 120 5 0 34 -23 64 -52 40
-37 58 -48 66 -40 8 8 -4 26 -45 66 -68 68 -92 71 -137 20z"/>
</g>
</svg>
